<svg width="240" height="32" viewBox="0 0 240 32" fill="none" xmlns="http://www.w3.org/2000/svg">
<g clip-path="url(#clip0_15642_9973)">
<path d="M35.6622 6.19922V16.7787C35.1182 16.2901 34.7527 15.9956 34.4274 15.6626C32.9989 14.1954 31.2741 13.7358 29.3389 14.3289C27.4037 14.9221 26.3627 16.3934 26.1551 18.3463C26.0623 19.2313 25.6844 19.4005 24.9175 19.3882C24.1507 19.3758 23.3367 19.3661 22.5948 19.5533C19.667 20.2979 18.0059 22.9651 18.4932 26.0287C18.5333 26.2778 18.579 26.527 18.6441 26.9041C18.244 26.9426 17.9077 27.0018 17.5699 27.0018C13.2787 27.0018 8.97364 26.955 4.67828 27.0293C2.74032 27.0623 0.612714 25.3351 0.663932 23.0573C0.787131 17.9458 0.702691 12.8288 0.702691 7.71451V6.4497C1.18995 6.70569 1.52356 6.86259 1.83225 7.04701C6.70622 10.0391 11.5899 13.0173 16.4279 16.0644C17.6294 16.82 18.6012 16.8462 19.8193 16.0644C24.6642 12.9664 29.5631 9.95235 34.444 6.90938C34.7679 6.7112 35.1029 6.5254 35.6622 6.19922Z" fill="white"/>
<path d="M35.496 2.59767C35.2597 2.82518 35.0071 3.03538 34.7402 3.22663C31.2676 5.40392 27.7913 7.57248 24.3112 9.73233C22.4895 10.8664 20.6582 11.9867 18.8545 13.1496C18.3478 13.4772 17.9519 13.491 17.437 13.1717C12.0771 9.8484 6.70898 6.53706 1.33251 3.23764C0.80511 2.91422 0.702675 2.58391 0.998907 2.04716C1.71457 0.783728 2.64064 -0.00488363 4.245 0.0019978C13.5624 0.0391575 22.8799 0.0185133 32.196 0.0212658C32.8652 0.0240881 33.5184 0.225658 34.0716 0.600113C34.6248 0.974567 35.0529 1.50483 35.3009 2.12285C35.3479 2.24121 35.3978 2.36095 35.496 2.59767Z" fill="white"/>
<path d="M26.353 27.0063C25.6041 27.0063 24.8538 27.02 24.1063 27.0063C22.9145 26.976 22.0036 26.1433 21.9441 25.0574C21.9274 24.5156 22.122 23.9882 22.4873 23.5858C22.8526 23.1833 23.3604 22.9369 23.9042 22.8981C25.265 22.7921 26.6381 22.8416 28.0044 22.8361C29.887 22.8279 29.6517 22.9242 29.6655 21.1364C29.6655 20.3918 29.5769 19.6294 29.7084 18.9082C29.7887 18.4692 30.132 17.9448 30.5113 17.7384C30.7798 17.6007 31.4249 17.7989 31.699 18.0604C33.5299 19.8092 35.3294 21.5933 37.0976 23.4128C37.4907 23.8342 37.7091 24.3877 37.7091 24.9625C37.7091 25.5372 37.4907 26.0907 37.0976 26.5122C35.3811 28.2835 33.6439 30.0396 31.8374 31.7132C31.4969 32.027 30.73 32.0559 30.2234 31.9499C29.9756 31.8976 29.7416 31.237 29.707 30.8351C29.6337 29.9311 29.6295 29.0229 29.6946 28.1183C29.7486 27.2925 29.5063 26.9154 28.6121 26.998C27.8563 27.0613 27.1019 27.0076 26.353 27.0063Z" fill="white"/>
<path d="M44.592 4.38672H49.0743V21.8793H59.7843V25.7191H44.592V4.38672Z" fill="white"/>
<path d="M75.6908 23.7922C74.3517 25.4345 72.3192 26.2557 69.5931 26.2557C66.867 26.2557 64.8345 25.4345 63.4954 23.7922C62.1573 22.1489 61.4878 20.1707 61.4869 17.8576C61.4869 15.5822 62.1564 13.6095 63.4954 11.9396C64.8345 10.2697 66.867 9.43567 69.5931 9.4375C72.3192 9.4375 74.3517 10.2715 75.6908 11.9396C77.0298 13.6076 77.6993 15.5803 77.6993 17.8576C77.6993 20.1679 77.0298 22.1461 75.6908 23.7922ZM72.3685 21.513C73.0145 20.6561 73.3375 19.4376 73.3375 17.8576C73.3375 16.2776 73.0145 15.0615 72.3685 14.2091C71.7179 13.3576 70.7868 12.9314 69.5751 12.9305C68.3634 12.9296 67.4295 13.3558 66.7734 14.2091C66.1191 15.0615 65.7915 16.2776 65.7905 17.8576C65.7896 19.4376 66.1172 20.6561 66.7734 21.513C67.4286 22.3709 68.3625 22.7994 69.5751 22.7985C70.7877 22.7976 71.7202 22.3682 72.3727 21.5103L72.3685 21.513Z" fill="white"/>
<path d="M86.9504 16.1242C87.7228 16.0278 88.2737 15.9081 88.6115 15.7622C89.2067 15.5117 89.5048 15.1213 89.5057 14.591C89.5057 13.9455 89.2759 13.4982 88.8136 13.2533C88.3512 13.0083 87.6854 12.883 86.8009 12.883C85.807 12.883 85.1038 13.1243 84.6912 13.607C84.3681 14.0281 84.164 14.5275 84.1002 15.0534H80.0997C80.1919 13.6771 80.5818 12.544 81.2694 11.654C82.3703 10.2649 84.2621 9.57031 86.9448 9.57031C88.689 9.57031 90.238 9.91255 91.5918 10.597C92.9456 11.2815 93.623 12.5743 93.6239 14.4754V21.7091C93.6239 22.2119 93.6336 22.8198 93.6529 23.5327C93.682 24.0736 93.7637 24.4397 93.9007 24.6338C94.0581 24.8439 94.2687 25.0087 94.5112 25.1113V25.7183H89.9957C89.8781 25.4292 89.7905 25.129 89.7341 24.8223C89.6861 24.5415 89.6474 24.2232 89.6178 23.8672C89.0384 24.4868 88.3699 25.0178 87.6342 25.443C86.7051 25.9618 85.6543 26.2263 84.5888 26.2096C83.1446 26.2096 81.9518 25.8018 81.0105 24.9861C80.0692 24.1704 79.5981 23.0157 79.5972 21.522C79.5972 19.5832 80.3548 18.1794 81.8701 17.3105C82.7007 16.8389 83.9225 16.5013 85.5356 16.2976L86.9504 16.1242ZM89.4863 18.051C89.2317 18.2089 88.9624 18.3421 88.6821 18.4487C88.3215 18.5733 87.9511 18.6677 87.5747 18.7309L86.6306 18.9043C85.7447 19.0584 85.1088 19.2465 84.7231 19.4686C84.0697 19.8438 83.7435 20.4274 83.7444 21.2192C83.7444 21.9238 83.9437 22.4326 84.3424 22.7455C84.7581 23.0648 85.2722 23.2311 85.7973 23.2162C86.6936 23.2189 87.5688 22.9459 88.3028 22.4344C89.065 21.9124 89.4614 20.9623 89.4919 19.5842L89.4863 18.051Z" fill="white"/>
<path d="M105.654 10.2003C106.4 10.6185 107.026 11.2187 107.473 11.9441V4.41992H111.679V25.7193H107.648V23.5338C107.056 24.4696 106.382 25.1495 105.625 25.5734C104.869 25.9973 103.927 26.2097 102.802 26.2106C100.949 26.2106 99.3898 25.4656 98.1227 23.9756C96.8557 22.4855 96.2231 20.5729 96.2249 18.2378C96.2249 15.5476 96.8478 13.4305 98.0937 11.8863C99.3395 10.3421 101.006 9.57044 103.094 9.57136C103.988 9.55472 104.871 9.77159 105.654 10.2003ZM106.673 21.4363C107.284 20.5674 107.59 19.4434 107.59 18.0644C107.59 16.1376 107.1 14.7581 106.12 13.9259C105.536 13.4311 104.791 13.1641 104.024 13.1745C102.811 13.1745 101.921 13.63 101.354 14.5411C100.786 15.4522 100.504 16.5831 100.508 17.9337C100.508 19.3907 100.797 20.5555 101.374 21.428C101.952 22.3006 102.829 22.7374 104.004 22.7383C105.172 22.7383 106.061 22.3043 106.673 21.4363Z" fill="white"/>
<path d="M117.832 6.61916C119.559 4.86486 121.758 3.98725 124.426 3.98633C127.997 3.98633 130.608 5.16305 132.259 7.5165C133.169 8.83773 133.659 10.164 133.726 11.4953H129.244C128.958 10.4723 128.593 9.70066 128.146 9.18043C127.347 8.25373 126.163 7.79084 124.594 7.79176C122.996 7.79176 121.737 8.44503 120.816 9.75159C119.895 11.0581 119.434 12.9079 119.432 15.3008C119.432 17.6927 119.918 19.4847 120.891 20.6765C121.864 21.8684 123.1 22.4648 124.599 22.4657C126.136 22.4657 127.308 21.9546 128.115 20.9325C128.561 20.382 128.93 19.5562 129.223 18.4552H133.676C133.291 20.7802 132.31 22.6708 130.732 24.1269C129.154 25.583 127.133 26.311 124.67 26.311C121.618 26.311 119.219 25.3275 117.472 23.3603C115.725 21.3931 114.852 18.6823 114.852 15.2278C114.852 11.5045 115.845 8.63496 117.832 6.61916Z" fill="white"/>
<path d="M150.203 23.7922C148.864 25.4345 146.833 26.2557 144.112 26.2557C141.391 26.2557 139.355 25.4345 138.005 23.7922C136.667 22.1489 135.997 20.1707 135.996 17.8576C135.996 15.5822 136.666 13.6095 138.005 11.9396C139.344 10.2697 141.376 9.43567 144.102 9.4375C146.827 9.4375 148.858 10.2715 150.193 11.9396C151.528 13.6076 152.198 15.5803 152.202 17.8576C152.206 20.1679 151.54 22.1461 150.203 23.7922ZM146.881 21.513C147.527 20.6561 147.85 19.4376 147.85 17.8576C147.85 16.2776 147.527 15.0615 146.881 14.2091C146.235 13.3576 145.303 12.9314 144.087 12.9305C142.871 12.9296 141.937 13.3558 141.285 14.2091C140.631 15.0615 140.303 16.2776 140.303 17.8576C140.302 19.4376 140.629 20.6561 141.285 21.513C141.941 22.3709 142.874 22.7994 144.087 22.7985C145.3 22.7976 146.231 22.3682 146.881 21.5103V21.513Z" fill="white"/>
<path d="M167.968 10.8544C169.007 11.7095 169.526 13.1253 169.526 15.1016V25.7183H165.276V16.1256C165.276 15.2998 165.165 14.6635 164.944 14.2167C164.54 13.4065 163.769 13.0014 162.632 13.0014C161.237 13.0014 160.279 13.5946 159.758 14.7809C159.489 15.4076 159.354 16.2081 159.354 17.1825V25.7155H155.201V9.97494H159.216V12.2761C159.747 11.4659 160.25 10.8824 160.723 10.5255C161.573 9.88869 162.65 9.57031 163.954 9.57031C165.592 9.57031 166.93 9.99834 167.968 10.8544Z" fill="white"/>
<path d="M186.173 10.8544C187.211 11.7095 187.73 13.1253 187.731 15.1016V25.7183H183.482V16.1256C183.482 15.2998 183.371 14.6635 183.15 14.2167C182.745 13.4065 181.975 13.0014 180.838 13.0014C179.442 13.0014 178.483 13.5946 177.963 14.7809C177.694 15.4076 177.559 16.2081 177.558 17.1825V25.7155H173.406V9.97494H177.42V12.2761C177.952 11.4659 178.454 10.8824 178.928 10.5255C179.777 9.88869 180.855 9.57031 182.16 9.57031C183.797 9.57031 185.135 9.99834 186.173 10.8544Z" fill="white"/>
<path d="M201.924 10.266C203.043 10.7713 203.993 11.5828 204.665 12.6057C205.33 13.5827 205.763 14.6978 205.929 15.8661C206.041 16.59 206.088 17.6333 206.067 18.9958H194.513C194.577 20.5767 195.13 21.686 196.174 22.3236C196.864 22.734 197.657 22.9398 198.461 22.9168C199.407 22.9168 200.175 22.6755 200.764 22.1929C201.118 21.8916 201.408 21.5229 201.617 21.1084H205.85C205.739 22.0443 205.227 22.9944 204.312 23.9587C202.892 25.4918 200.903 26.2584 198.345 26.2584C196.311 26.2851 194.332 25.598 192.758 24.3179C191.144 23.0251 190.337 20.9207 190.338 18.0049C190.338 15.2734 191.066 13.1782 192.522 11.7194C193.979 10.2605 195.87 9.53153 198.198 9.53245C199.478 9.51165 200.748 9.7617 201.924 10.266ZM195.719 13.8292C195.133 14.4293 194.763 15.2431 194.611 16.2707H201.757C201.682 15.1752 201.313 14.3444 200.649 13.7783C199.986 13.2122 199.166 12.9287 198.189 12.9277C197.129 12.9277 196.306 13.2282 195.719 13.8292Z" fill="white"/>
<path d="M217.651 15.6042C217.58 15.034 217.375 14.4884 217.053 14.0118C216.586 13.376 215.861 13.058 214.879 13.058C213.479 13.058 212.521 13.7462 212.006 15.1225C211.729 15.8565 211.59 16.8281 211.59 18.0374C211.59 19.1926 211.729 20.1211 212.006 20.823C212.501 22.1342 213.435 22.7902 214.806 22.7911C215.779 22.7911 216.471 22.5306 216.883 22.0094C217.294 21.4882 217.542 20.8129 217.626 19.9835H221.86C221.75 21.2742 221.275 22.5077 220.491 23.5426C219.19 25.3473 217.262 26.2493 214.708 26.2484C212.153 26.2474 210.275 25.4951 209.071 23.9912C207.871 22.4874 207.272 20.5368 207.272 18.1393C207.272 15.4335 207.937 13.3283 209.268 11.8235C210.598 10.3188 212.434 9.56641 214.773 9.56641C216.764 9.56641 218.394 10.01 219.661 10.8973C220.928 11.7845 221.677 13.3535 221.907 15.6042H217.651Z" fill="white"/>
<path d="M223.109 13.029V10.0906H225.324V5.69336H229.428V10.0975H232.004V13.029H229.424V21.3624C229.424 22.0092 229.507 22.4111 229.672 22.5707C229.836 22.7304 230.34 22.8088 231.185 22.8088C231.311 22.8088 231.445 22.8088 231.585 22.802C231.725 22.7951 231.862 22.7896 232 22.7799V25.8559L230.036 25.9289C228.076 25.9968 226.738 25.6591 226.021 24.9159C225.56 24.4434 225.329 23.7154 225.329 22.7318V13.029H223.109Z" fill="white"/>
</g>
<defs>
<clipPath id="clip0_15642_9973">
<rect width="231.333" height="32" fill="white" transform="translate(0.666687)"/>
</clipPath>
</defs>
</svg>
