<svg width="733" height="327" viewBox="0 0 733 327" fill="none" xmlns="http://www.w3.org/2000/svg">
<path d="M134.491 0.615086C109.024 4.61509 86.8911 16.3484 81.8244 28.6151C80.3577 31.9484 79.4244 32.6151 75.2911 32.6151C48.4911 32.8818 19.0244 59.8151 13.6911 89.2818C12.8911 93.6818 9.8244 102.082 7.0244 107.948C-2.04227 126.615 -2.30894 143.815 6.09106 159.682C16.3577 178.882 33.8244 185.815 72.0911 185.948C85.8244 185.948 90.0911 186.482 99.4244 189.415C112.491 193.548 124.224 198.882 132.491 204.482L138.358 208.482L140.491 202.882C144.224 193.282 153.291 181.148 163.291 172.882C172.491 165.015 172.624 164.882 177.958 166.215L183.291 167.682L174.758 176.482C164.224 187.282 157.558 197.682 153.824 208.482L151.158 216.615L159.558 224.615C164.224 228.882 171.558 237.282 175.824 243.015C180.091 248.882 185.958 255.148 188.758 257.015C195.158 261.148 204.358 262.615 210.491 260.615C218.224 258.082 217.824 255.015 207.958 236.348C203.158 227.148 199.158 219.015 199.158 218.215C199.158 217.282 200.491 217.148 203.558 218.082C212.091 220.482 228.891 220.882 240.358 218.748C253.824 216.348 264.224 211.282 271.158 203.815C279.691 194.482 282.224 188.215 282.758 174.615C283.158 165.682 284.091 160.748 286.624 155.148C296.624 131.948 292.758 103.148 277.024 83.9484C272.624 78.4818 271.424 75.6818 270.758 69.9484C268.358 50.0818 249.558 29.9484 226.624 22.4818C222.891 21.2818 217.424 18.0818 214.491 15.2818C206.758 8.21509 200.758 4.88175 191.024 2.74842C180.891 0.481753 143.958 -0.851581 134.491 0.615086ZM159.824 16.8818C161.958 18.8818 162.491 20.8818 162.224 26.7484C161.958 35.6818 158.624 43.0151 149.558 54.2151C141.424 64.4818 139.558 68.0818 138.358 75.1484C136.758 85.2818 139.691 91.4151 151.824 103.548C160.491 112.215 163.158 115.682 163.824 119.548C165.958 131.282 161.158 136.482 134.758 151.682C124.758 157.415 113.291 165.015 109.424 168.615C102.491 174.882 101.958 175.148 97.6911 173.815C95.1577 173.015 82.6244 172.215 69.6911 171.948C42.8911 171.548 34.6244 169.815 25.6911 162.882C13.8244 153.948 9.69106 135.015 16.2244 120.215L19.0244 113.815L24.2244 117.815C31.0244 123.415 42.6244 127.282 52.2244 127.282C60.7577 127.282 63.1577 125.815 63.1577 120.482C63.1577 115.682 61.1577 114.482 51.2911 113.415C41.4244 112.348 33.9577 108.882 29.9577 103.815C20.2244 91.4151 35.8244 61.6818 57.5577 51.0151C65.2911 47.1484 67.8244 46.6151 76.4911 46.7484C84.8911 46.7484 88.2244 47.5484 97.9577 51.6818C117.824 60.0818 125.691 60.6151 127.824 53.9484C129.024 50.0818 126.491 47.5484 119.291 45.4151C113.424 43.6818 96.3577 36.8818 95.2911 35.8151C95.0244 35.5484 95.8244 33.8151 97.0244 31.9484C102.491 23.6818 121.024 15.9484 139.558 14.0818C151.424 12.8818 156.358 13.5484 159.824 16.8818ZM192.624 17.2818C204.091 21.4151 209.824 29.8151 209.824 42.6151C209.824 54.3484 203.691 63.4151 191.424 69.8151C189.024 71.1484 188.491 72.3484 188.758 75.6818C189.558 84.4818 199.024 83.2818 211.024 73.0151C218.758 66.4818 223.424 56.7484 224.224 45.8151L224.891 37.0151L229.958 39.0151C237.291 41.9484 249.424 53.2818 253.424 61.1484C258.091 70.0818 258.358 82.6151 254.091 90.8818C250.491 97.8151 243.024 103.948 234.891 106.748C227.424 109.148 224.891 112.748 227.024 117.415C231.158 126.748 257.824 113.548 265.558 98.3484L268.091 93.5484L271.824 99.9484C273.958 103.415 276.491 109.415 277.424 113.148C283.824 138.082 270.224 166.082 250.491 168.348C247.158 168.615 244.491 168.348 244.491 167.682C244.491 167.015 246.891 164.082 249.824 161.282C262.491 148.882 249.424 148.215 236.091 160.482C229.958 166.215 226.358 172.615 227.558 175.682C229.558 180.882 253.424 182.348 263.691 177.948C269.424 175.548 269.824 175.548 269.824 177.815C269.824 179.015 268.224 183.415 266.224 187.415C259.424 200.615 246.758 206.215 223.691 206.082C212.758 206.082 192.491 201.682 192.491 199.282C192.491 198.748 195.158 194.348 198.491 189.415C219.958 157.415 220.224 133.948 199.558 113.548C189.691 103.815 180.358 97.6818 164.891 90.3484L152.491 84.6151V78.7484C152.491 73.9484 153.424 71.6818 157.158 67.0151C172.358 48.0818 176.358 39.1484 176.491 24.8818V15.2818H181.691C184.491 15.2818 189.424 16.2151 192.624 17.2818ZM192.224 116.482C197.024 122.882 197.291 123.948 194.491 125.015C193.158 125.548 191.424 123.415 188.491 117.815C183.824 108.615 185.691 107.948 192.224 116.482ZM198.491 139.548C197.958 142.748 196.091 148.482 194.358 152.482C191.558 158.615 190.758 159.548 188.224 158.748C186.491 158.348 184.758 157.948 184.224 157.948C182.224 157.948 183.158 155.148 186.491 150.748C188.358 148.348 190.491 144.348 191.291 141.815C193.291 136.082 194.891 133.948 197.424 133.948C199.024 133.948 199.158 135.148 198.491 139.548Z" fill="white"/>
<path d="M60.4911 77.9484C57.4244 81.0151 57.2911 82.3484 59.1577 86.0817C60.2244 87.9484 61.9577 88.6151 65.9577 88.6151C80.4911 88.6151 87.4244 93.1484 99.4244 110.215C106.224 119.948 115.824 127.282 126.224 130.748C132.091 132.748 132.891 132.748 135.958 130.615C141.691 126.882 139.824 123.282 129.024 117.682C119.158 112.482 115.291 108.615 105.024 94.2151C95.8244 81.2818 84.7577 75.2818 70.2244 75.2818C64.8911 75.2818 62.4911 75.9484 60.4911 77.9484Z" fill="white"/>
<path d="M493.024 27.4151C486.891 28.8818 477.424 36.2151 474.491 41.9484C465.824 58.7484 471.558 78.6151 487.424 86.4818C499.424 92.4818 514.891 90.3484 522.758 81.6818L525.824 78.4818L518.224 71.1484L512.358 74.6151C505.424 78.4818 500.624 78.7484 494.224 75.6818C482.224 70.0818 481.424 49.0151 492.758 41.9484C498.224 38.4818 507.691 38.8818 513.424 43.0151L517.424 45.8151L525.824 37.1484L522.891 34.3484C515.558 27.6818 503.558 24.8818 493.024 27.4151Z" fill="white"/>
<path d="M700.358 27.6818C674.224 35.0151 670.091 73.5484 694.091 86.2151C701.558 90.0818 716.891 90.4818 726.224 86.8818L732.491 84.3484V53.8151L709.158 54.6151L708.758 59.5484L708.358 64.6151H720.491V70.4818C720.491 75.4151 719.958 76.4818 717.558 77.1484C708.624 79.4151 699.291 76.3484 695.158 69.6818C691.958 64.3484 691.558 53.0151 694.358 47.4151C699.024 38.6151 712.358 35.6818 720.491 41.6818L724.758 44.8818L728.624 40.4818C733.158 35.4151 733.158 35.4151 730.224 33.0151C722.891 27.2818 709.958 25.0151 700.358 27.6818Z" fill="white"/>
<path d="M304.491 39.2818H320.491V88.6151H332.491V39.2818H348.491V27.2818H304.491V39.2818Z" fill="white"/>
<path d="M357.824 88.6151H371.158V67.2818H374.891C377.958 67.2818 379.291 68.6151 384.491 77.9484L390.491 88.6151H398.224C402.358 88.6151 405.824 88.3484 405.824 87.9484C405.824 87.5484 402.758 82.3484 399.024 76.4818L392.224 65.6818L396.358 61.4151C401.691 55.9484 403.558 50.4818 402.491 43.6818C401.424 36.6151 396.091 30.7484 389.024 28.7484C386.224 27.9484 377.958 27.2818 370.891 27.2818H357.824V88.6151ZM385.558 41.4151C389.024 43.8151 389.424 49.4151 386.224 52.8818C384.758 54.6151 382.224 55.2818 377.558 55.2818H371.158V39.2818H376.891C379.958 39.2818 383.958 40.2151 385.558 41.4151Z" fill="white"/>
<path d="M412.224 38.8818C411.958 50.4818 411.958 61.5484 412.358 69.2818C412.358 71.5484 414.091 75.9484 416.091 79.0151C425.824 94.0818 449.824 93.5484 458.758 78.2151C462.224 72.3484 462.358 71.5484 462.358 50.0818L462.491 27.9484L456.224 27.5484L449.824 27.1484V45.5484C449.824 68.4818 448.624 73.5484 442.358 76.0818C436.758 78.4818 431.958 77.4151 428.491 73.0151C426.091 69.9484 425.824 67.5484 425.824 48.4818V27.2818H412.491L412.224 38.8818Z" fill="white"/>
<path d="M533.824 88.6151H547.024L547.824 59.9484L558.224 74.2151L568.758 88.6151H576.624C580.891 88.6151 584.491 88.2151 584.491 87.8151C584.491 87.4151 579.691 80.7484 573.691 73.0151C567.824 65.1484 562.624 58.0818 562.224 57.1484C561.958 56.3484 566.491 49.5484 572.358 42.3484C578.358 35.0151 583.158 28.6151 583.158 28.2151C583.158 27.6818 579.958 27.2818 575.958 27.2818H568.758L558.224 40.4818L547.824 53.6818L547.024 27.2818H533.824V88.6151Z" fill="white"/>
<path d="M591.158 88.6151H604.491V27.2818H591.158V88.6151Z" fill="white"/>
<path d="M616.491 88.6151H628.358L629.158 50.6151L643.024 69.6818L656.758 88.6151H669.824V27.2818H656.624L655.824 65.8151L641.824 46.4818L627.824 27.2818H616.491V88.6151Z" fill="white"/>
<path d="M555.824 108.482C549.291 110.082 545.958 112.882 542.891 119.015C540.491 124.082 540.358 125.548 541.691 129.948C543.691 136.482 549.291 141.148 558.224 143.815C566.624 146.215 570.491 149.815 569.158 153.948C567.291 159.815 557.024 160.348 549.424 155.015C547.291 153.548 545.558 152.482 545.424 152.748C545.291 153.015 543.691 154.882 541.958 156.882C539.158 160.082 539.024 160.882 540.624 162.748C545.824 169.148 562.491 171.948 571.558 168.082C578.758 165.015 582.224 160.215 582.891 151.948C583.424 144.882 583.291 144.348 578.891 140.215C576.224 137.682 571.024 134.882 566.358 133.415C556.891 130.482 555.158 129.282 555.158 125.148C555.158 119.282 563.291 117.548 570.491 121.948L574.758 124.615L578.491 120.615C581.691 117.282 581.958 116.348 580.491 114.615C576.224 109.548 563.824 106.482 555.824 108.482Z" fill="white"/>
<path d="M320.491 109.682C318.224 110.748 318.358 109.015 317.158 143.548L316.091 169.948H328.091L329.024 162.882C329.424 159.148 329.824 150.215 329.958 143.282L330.091 130.615L337.958 147.015C345.291 162.348 346.091 163.415 349.291 163.015C352.358 162.615 353.824 160.482 360.624 145.948L368.491 129.282V141.415C368.491 148.082 368.891 157.282 369.291 161.815L370.224 169.948H382.224L381.158 140.215C380.624 123.948 379.958 110.348 379.691 110.082C379.424 109.815 376.358 109.415 372.891 109.282L366.491 109.015L357.824 127.015L349.158 144.882L332.091 108.615L327.291 108.748C324.624 108.748 321.558 109.148 320.491 109.682Z" fill="white"/>
<path d="M394.891 109.682C392.624 110.082 392.491 112.615 392.491 140.082V169.948H405.824V139.948C405.824 123.415 405.424 109.815 404.891 109.682C402.358 109.282 397.024 109.148 394.891 109.682Z" fill="white"/>
<path d="M417.024 110.348C416.758 111.282 416.624 124.882 416.758 140.615L417.158 169.282L423.558 169.682L429.824 170.082V132.082L457.824 169.948H469.824V109.015H463.824L457.824 108.882V128.215C457.824 139.948 457.291 147.148 456.624 146.615C455.824 146.215 449.291 137.548 441.824 127.282C428.358 108.748 428.224 108.615 423.024 108.615C419.958 108.615 417.424 109.282 417.024 110.348Z" fill="white"/>
<path d="M481.024 110.348C480.758 111.282 480.624 124.882 480.758 140.615L481.158 169.282L496.491 169.148C513.824 169.015 519.558 167.148 526.758 158.748C532.358 152.615 534.224 145.948 533.558 135.815C532.891 125.148 528.091 117.548 518.891 112.882C513.558 110.082 510.358 109.548 497.158 109.148C485.691 108.882 481.558 109.148 481.024 110.348ZM512.624 124.082C520.224 127.948 522.624 139.682 517.691 148.615C514.224 154.748 510.491 156.615 501.824 156.615H495.158V120.482L501.824 121.148C505.558 121.548 510.358 122.882 512.624 124.082Z" fill="white"/>
<path d="M421.424 189.148C414.758 191.682 411.558 194.615 409.691 200.215C407.824 206.215 409.158 213.015 413.158 216.882C414.891 218.615 420.358 221.415 425.291 223.282C435.824 227.282 438.891 230.615 435.691 235.015C432.758 239.282 423.424 239.148 418.091 234.615L414.224 231.415L410.758 235.015C408.758 237.148 407.158 239.415 407.158 240.348C407.158 241.148 409.958 243.548 413.558 245.548C422.224 250.748 435.024 250.882 442.224 245.948C448.091 241.948 449.824 238.348 449.824 230.482C449.824 225.282 449.158 223.682 445.558 220.082C443.024 217.548 437.958 214.615 433.824 213.282C422.224 209.548 419.424 205.948 424.491 201.282C427.558 198.482 435.424 199.148 439.024 202.482C441.158 204.348 441.691 204.215 444.891 200.882C446.891 198.748 448.491 196.482 448.491 195.815C448.491 193.548 438.491 188.615 432.358 187.948C428.891 187.548 424.358 188.082 421.424 189.148Z" fill="white"/>
<path d="M316.491 248.615H329.824V225.948H351.158V213.948H329.824V200.615H353.824L353.424 194.882L353.158 189.282L316.491 188.482V248.615Z" fill="white"/>
<path d="M362.758 189.415C362.224 189.948 361.824 203.548 361.824 219.548V248.615H400.491V236.615H376.491V223.415L397.024 222.615L397.158 217.948V213.282L376.491 212.482V200.615H400.624L400.224 194.882L399.824 189.282L381.691 188.882C371.824 188.748 363.291 189.015 362.758 189.415Z" fill="white"/>
<path d="M455.158 200.615H469.824V248.615H483.158V200.615H499.158V188.615H455.158V200.615Z" fill="white"/>
<path d="M316.358 288.215C316.358 289.148 316.358 319.015 316.491 324.482C316.491 327.415 336.758 325.948 340.358 322.748C344.091 319.415 344.224 311.282 340.491 307.948C338.224 305.815 338.091 305.282 339.824 302.882C343.424 297.682 341.824 292.082 335.558 288.882C332.358 287.148 316.491 286.615 316.358 288.215ZM333.424 296.082C334.758 299.548 331.958 302.615 327.291 303.015C323.291 303.415 323.158 303.282 323.158 298.748C323.158 294.215 323.424 293.948 327.824 293.948C331.024 293.948 332.891 294.615 333.424 296.082ZM334.358 311.548C337.424 315.948 335.024 319.282 328.491 319.282C323.158 319.282 323.158 319.282 323.158 313.948C323.158 308.748 323.291 308.615 327.691 308.615C330.891 308.615 332.891 309.548 334.358 311.548Z" fill="white"/>
<path d="M352.491 325.948H360.491V287.282H352.491V325.948Z" fill="white"/>
<path d="M371.824 290.615C365.291 297.015 368.091 304.748 378.491 309.282C386.358 312.748 387.558 314.082 386.358 317.148C385.291 319.948 376.758 319.948 373.824 317.282C371.824 315.415 371.291 315.548 369.291 317.815C367.158 320.215 367.158 320.482 370.624 323.148C375.824 327.282 386.224 327.015 390.491 322.615C394.891 318.348 395.024 311.415 390.891 307.682C389.158 306.082 385.291 303.815 382.091 302.615C377.558 300.748 376.491 299.682 376.758 297.415C377.291 294.082 383.558 292.748 386.624 295.415C388.091 296.615 388.891 296.615 390.491 295.282C393.424 292.882 392.891 290.615 389.158 288.882C383.158 286.082 375.424 286.882 371.824 290.615Z" fill="white"/>
<path d="M403.158 326.082L406.891 325.682C410.758 325.282 410.758 325.148 411.024 314.882L411.158 308.615H427.158V317.282C427.158 325.682 427.291 325.948 430.491 325.948H433.824V287.282H430.491C427.291 287.282 427.158 287.682 427.158 294.615V301.948H410.358L410.491 294.882C410.491 288.348 410.358 287.948 406.891 287.548L403.158 287.148V326.082Z" fill="white"/>
<path d="M444.491 325.948H452.358L453.158 306.748L460.224 316.348C466.758 325.015 467.824 325.948 472.091 325.948C477.291 325.948 477.424 326.215 468.224 314.348C464.758 309.815 461.824 305.548 461.824 305.015C461.824 304.482 464.491 300.615 467.824 296.482C471.158 292.215 473.824 288.482 473.824 288.082C473.824 287.682 472.224 287.282 470.224 287.282C467.291 287.282 465.024 289.015 459.824 295.548L453.158 303.815L452.758 295.548C452.358 287.415 452.358 287.282 448.491 287.282H444.491V325.948Z" fill="white"/>
<path d="M483.158 325.948H495.158C507.024 325.948 507.158 325.948 507.158 322.615C507.158 319.415 506.758 319.282 499.158 319.282H491.158V308.615H497.824C504.091 308.615 504.491 308.348 504.491 305.282C504.491 302.215 504.091 301.948 497.824 301.948C491.291 301.948 491.158 301.815 491.158 297.948V293.948H499.291C506.891 293.948 507.291 293.815 506.891 290.882C506.491 288.082 505.824 287.948 494.891 287.548L483.158 287.148V325.948Z" fill="white"/>
<path d="M516.224 288.882C515.958 289.815 515.824 298.348 515.824 307.948L516.091 325.282L519.558 325.682C523.024 326.082 523.024 326.082 523.424 316.348L523.824 306.615L529.424 313.948C532.624 317.948 535.958 322.348 536.891 323.682C538.091 325.415 539.958 326.082 543.024 325.682L547.424 325.282L539.824 314.882C533.158 305.815 532.491 304.215 533.958 302.215C535.024 301.015 538.091 297.148 540.891 293.548L546.091 287.282H541.558C537.691 287.282 536.224 288.482 530.491 295.682L523.824 303.948L523.424 295.548C523.024 287.815 522.758 287.282 519.958 287.282C518.224 287.282 516.491 288.082 516.224 288.882Z" fill="white"/>
<path d="M570.891 291.548L567.024 295.815L569.958 297.282C572.491 298.748 573.291 298.482 575.824 295.548C578.491 292.482 579.158 292.215 582.358 293.682C588.358 296.348 587.024 301.015 577.158 311.148C571.958 316.615 568.491 321.282 568.491 323.015C568.491 325.815 569.024 325.948 581.158 325.948C593.824 325.948 593.824 325.948 593.824 322.615C593.824 319.415 593.424 319.282 586.358 319.282H578.891L585.158 312.348C595.024 301.415 595.958 297.148 589.958 291.148C584.224 285.548 576.358 285.682 570.891 291.548Z" fill="white"/>
<path d="M608.091 288.748C602.624 291.948 599.424 304.882 601.824 313.948C603.958 321.815 608.358 325.948 614.758 325.948C624.358 325.948 629.824 318.748 629.824 306.082C629.824 293.682 625.024 287.282 615.958 287.282C612.891 287.282 609.424 287.948 608.091 288.748ZM619.558 295.015C624.624 300.615 623.424 316.348 617.691 319.282C611.424 322.748 607.424 314.882 608.891 302.215C609.824 293.548 615.024 290.082 619.558 295.015Z" fill="white"/>
<path d="M640.224 291.415C636.091 295.415 636.091 295.415 638.891 297.415C641.424 299.148 641.958 299.015 645.024 295.948C649.024 291.948 650.091 291.815 653.158 295.282C656.491 298.882 654.358 303.548 645.024 312.748C640.491 317.148 637.824 321.015 637.824 322.882C637.824 325.815 638.224 325.948 650.491 325.948C663.158 325.948 663.158 325.948 663.158 322.615C663.158 319.415 662.758 319.282 655.558 319.282H647.958L652.624 314.215C659.691 306.882 661.824 303.148 661.824 298.215C661.824 287.548 648.224 283.282 640.224 291.415Z" fill="white"/>
<path d="M673.291 296.215C672.758 301.015 672.891 305.548 673.424 306.082C673.958 306.615 677.424 307.282 681.024 307.548C688.358 307.948 690.758 310.215 689.291 315.682C688.224 320.348 682.624 321.815 677.558 318.882C674.091 316.882 673.824 316.882 672.491 319.282C669.558 324.882 682.891 328.215 691.024 323.948C693.158 322.882 695.558 320.215 696.358 317.682C699.424 308.748 693.158 300.615 683.158 300.615C679.558 300.615 679.024 300.215 679.424 297.548C679.824 295.015 680.758 294.615 686.891 294.215C693.291 293.815 693.824 293.548 693.824 290.482C693.824 287.415 693.558 287.282 683.958 287.282H674.224L673.291 296.215Z" fill="white"/>
</svg>
